<svg xmlns="http://www.w3.org/2000/svg" width="81" height="152" viewBox="0 0 81 152">
    <g fill="#FFF" fill-rule="nonzero" opacity=".25">
        <path d="M67.5 39.667V25.626H42.955V0h-5.26v25.626H13.149v14.041H.175V152h80.65V39.667H67.5zm-49.09-8.776h43.83v8.776H18.41v-8.776zm57.155 115.843H5.435V44.933h70.13v101.801z"/>
        <path d="M13.5 119.704h5.26v14.042H13.5zM29.63 119.704h5.26v14.042h-5.26zM45.76 119.704h5.26v14.042h-5.26zM61.89 119.704h5.26v14.042h-5.26zM13.5 88.813h5.26v14.042H13.5zM29.63 88.813h5.26v14.042h-5.26zM45.76 88.813h5.26v14.042h-5.26zM61.89 88.813h5.26v14.042h-5.26zM13.5 57.921h5.26v14.042H13.5zM29.63 57.921h5.26v14.042h-5.26zM45.76 57.921h5.26v14.042h-5.26zM61.89 57.921h5.26v14.042h-5.26z"/>
    </g>
</svg>
