<svg xmlns="http://www.w3.org/2000/svg" width="112.65" height="93" viewBox="0 0 112.65 93"><path fill="#3a98ca" d="M66.82 16.91c-.8 0-1.5-.58-1.65-1.4a1.68 1.68 0 0 1 1.38-1.93l36.22-6.06c.91-.14 1.77.46 1.93 1.38.15.91-.47 1.78-1.38 1.93L67.1 16.89c-.09.02-.18.02-.28.02z"/><path fill="none" stroke="#3a98ca" stroke-miterlimit="50" d="M66.82 16.91c-.8 0-1.5-.58-1.65-1.4a1.68 1.68 0 0 1 1.38-1.93l36.22-6.06c.91-.14 1.77.46 1.93 1.38.15.91-.47 1.78-1.38 1.93L67.1 16.89c-.09.02-.18.02-.28.02z"/><path fill="#3a98ca" d="M9.82 25.97a1.68 1.68 0 0 1-.27-3.34l36.5-6.1c.93-.17 1.78.46 1.93 1.38.15.91-.47 1.77-1.38 1.93l-36.5 6.1c-.09.02-.18.03-.28.03z"/><path fill="none" stroke="#3a98ca" stroke-miterlimit="50" d="M9.82 25.97a1.68 1.68 0 0 1-.27-3.34l36.5-6.1c.93-.17 1.78.46 1.93 1.38.15.91-.47 1.77-1.38 1.93l-36.5 6.1c-.09.02-.18.03-.28.03z"/><path fill="#3a98ca" d="M90.8 68.87a20.69 20.69 0 0 1-20.65-20.69c0-.93.75-1.68 1.67-1.68h37.94c.92 0 1.67.75 1.67 1.68A20.69 20.69 0 0 1 90.8 68.87zM73.57 49.86A17.33 17.33 0 0 0 90.8 65.52c8.97 0 16.37-6.89 17.21-15.66z"/><path fill="none" stroke="#3a98ca" stroke-miterlimit="50" d="M90.8 68.87a20.69 20.69 0 0 1-20.65-20.69c0-.93.75-1.68 1.67-1.68h37.94c.92 0 1.67.75 1.67 1.68A20.69 20.69 0 0 1 90.8 68.87zM73.57 49.86A17.33 17.33 0 0 0 90.8 65.52c8.97 0 16.37-6.89 17.21-15.66z"/><path fill="#3a98ca" d="M71.82 50.22a1.69 1.69 0 0 1-1.48-2.46l18.97-36.43c.57-1.11 2.4-1.11 2.97 0l18.96 36.43a1.68 1.68 0 1 1-2.97 1.55L90.8 15.74 73.31 49.31c-.3.58-.88.91-1.49.91z"/><path fill="none" stroke="#3a98ca" stroke-miterlimit="50" d="M71.82 50.22a1.69 1.69 0 0 1-1.48-2.46l18.97-36.43c.57-1.11 2.4-1.11 2.97 0l18.96 36.43a1.68 1.68 0 1 1-2.97 1.55L90.8 15.74 73.31 49.31c-.3.58-.88.91-1.49.91z"/><path fill="#3a98ca" d="M21.8 79.87A20.69 20.69 0 0 1 1.14 59.18c0-.93.75-1.68 1.67-1.68h37.94c.92 0 1.67.75 1.67 1.68A20.69 20.69 0 0 1 21.8 79.87zm0-3.35c8.96 0 16.36-6.89 17.2-15.66H4.58A17.33 17.33 0 0 0 21.8 76.52z"/><path fill="none" stroke="#3a98ca" stroke-miterlimit="50" d="M21.8 79.87A20.69 20.69 0 0 1 1.14 59.18c0-.93.75-1.68 1.67-1.68h37.94c.92 0 1.67.75 1.67 1.68A20.69 20.69 0 0 1 21.8 79.87zm0-3.35c8.96 0 16.36-6.89 17.2-15.66H4.58A17.33 17.33 0 0 0 21.8 76.52z"/><path fill="#3a98ca" d="M40.76 61.22a1.7 1.7 0 0 1-1.49-.91L21.8 26.74 4.31 60.31a1.68 1.68 0 1 1-2.97-1.55l18.97-36.43c.58-1.11 2.4-1.11 2.97 0l18.96 36.43a1.68 1.68 0 0 1-1.48 2.46z"/><path fill="none" stroke="#3a98ca" stroke-miterlimit="50" d="M40.76 61.22a1.7 1.7 0 0 1-1.49-.91L21.8 26.74 4.31 60.31a1.68 1.68 0 1 1-2.97-1.55l18.97-36.43c.58-1.11 2.4-1.11 2.97 0l18.96 36.43a1.68 1.68 0 0 1-1.48 2.46z"/><path fill="#3a98ca" d="M56.04 29.34a11.92 11.92 0 0 1 0-23.84 11.93 11.93 0 0 1 0 23.84zm0-20.48a8.56 8.56 0 0 0 0 17.13 8.58 8.58 0 0 0 0-17.13z"/><path fill="none" stroke="#3a98ca" stroke-miterlimit="50" d="M56.04 29.34a11.92 11.92 0 0 1 0-23.84 11.93 11.93 0 0 1 0 23.84zm0-20.48a8.56 8.56 0 0 0 0 17.13 8.58 8.58 0 0 0 0-17.13z"/><path fill="#3a98ca" d="M55.82 91.99c-.92 0-1.67-.76-1.67-1.68V27.18a1.68 1.68 0 1 1 3.35 0v63.13c0 .92-.75 1.68-1.68 1.68z"/><path fill="none" stroke="#3a98ca" stroke-miterlimit="50" d="M55.82 91.99c-.92 0-1.67-.76-1.67-1.68V27.18a1.68 1.68 0 1 1 3.35 0v63.13c0 .92-.75 1.68-1.68 1.68z"/><path fill="#3a98ca" d="M55.82 7.93c-.92 0-1.67-.75-1.67-1.68V2.18a1.68 1.68 0 1 1 3.35 0v4.07c0 .93-.75 1.68-1.68 1.68z"/><path fill="none" stroke="#3a98ca" stroke-miterlimit="50" d="M55.82 7.93c-.92 0-1.67-.75-1.67-1.68V2.18a1.68 1.68 0 1 1 3.35 0v4.07c0 .93-.75 1.68-1.68 1.68z"/><path fill="#3a98ca" d="M78.01 91.86H33.82c-.92 0-1.67-.75-1.67-1.68 0-.93.75-1.68 1.67-1.68h44.2c.91 0 1.66.75 1.66 1.68 0 .93-.75 1.68-1.67 1.68z"/><path fill="none" stroke="#3a98ca" stroke-miterlimit="50" d="M78.01 91.86H33.82c-.92 0-1.67-.75-1.67-1.68 0-.93.75-1.68 1.67-1.68h44.2c.91 0 1.66.75 1.66 1.68 0 .93-.75 1.68-1.67 1.68z"/></svg>