<?xml version="1.0" encoding="UTF-8"?>
<svg width="62px" height="85px" viewBox="0 0 62 85" version="1.1" xmlns="http://www.w3.org/2000/svg" xmlns:xlink="http://www.w3.org/1999/xlink">
    <!-- Generator: Sketch 46.2 (44496) - http://www.bohemiancoding.com/sketch -->
    <title>Group 3</title>
    <desc>Created with Sketch.</desc>
    <defs></defs>
    <g id="Home-Pages" stroke="none" stroke-width="1" fill="none" fill-rule="evenodd">
        <g id="2.0-APS-Work-v14.0" transform="translate(-268.000000, -3654.000000)" stroke="#3A98CA" fill-rule="nonzero" fill="#3A98CA">
            <g id="New-public-service" transform="translate(0.000000, 2160.000000)">
                <g id="padlock" transform="translate(223.000000, 1465.000000)">
                    <g id="Group-3" transform="translate(46.000000, 30.000000)">
                        <path d="M30,44.8512871 C25.4812903,44.8512871 21.8048387,48.5462461 21.8048387,53.0880645 C21.8048387,55.3405742 22.7362903,57.5185137 24.3624194,59.0684414 L24.3624194,66.505209 C24.3624194,69.629543 26.8914516,72.171418 30,72.171418 C33.1085484,72.171418 35.6375806,69.629543 35.6375806,66.505209 L35.6375806,59.0684414 C37.2630645,57.5194863 38.1951613,55.3410605 38.1951613,53.0880645 C38.1951613,48.5462461 34.518871,44.8512871 30,44.8512871 Z M32.9,56.1803008 C32.1175806,56.9213027 31.668871,57.9570195 31.668871,59.0220781 L31.668871,66.505209 C31.668871,67.430043 30.9204839,68.1822305 30.0003226,68.1822305 C29.0801613,68.1822305 28.3317742,67.430043 28.3317742,66.505209 L28.3317742,59.0220781 C28.3317742,57.9570195 27.8830645,56.9211406 27.101129,56.1807871 C26.2456452,55.3697539 25.7743548,54.2714629 25.7743548,53.0880645 C25.7743548,50.7460703 27.6703226,48.8404746 30.0004839,48.8404746 C32.3306452,48.8404746 34.2266129,50.7460703 34.2266129,53.0880645 C34.226129,54.2714629 33.7548387,55.3697539 32.9,56.1803008 Z" id="Shape"></path>
                        <path d="M54.0287097,34.0228672 L15.8932258,34.0228672 L15.8932258,18.1679219 C15.8932258,10.349873 22.2212903,3.9891875 30,3.9891875 C37.7787097,3.9891875 44.1069355,10.349873 44.1069355,18.1679219 L44.1069355,25.3441797 C44.1069355,26.4457129 44.9956452,27.3387734 46.0914516,27.3387734 C47.1872581,27.3387734 48.0759677,26.445875 48.0759677,25.3441797 L48.0759677,18.1679219 C48.0759677,8.15004883 39.9670968,0 30,0 C20.0329032,0 11.9240323,8.15004883 11.9240323,18.1679219 L11.9240323,34.0228672 L5.97112903,34.0228672 C2.6883871,34.0228672 0.0177419355,36.7072363 0.0177419355,40.0064863 L0.0177419355,77.0162187 C0.0177419355,80.3156309 2.6883871,82.9998379 5.97112903,82.9998379 L54.0287097,82.9998379 C57.3114516,82.9998379 59.9820968,80.3156309 59.9820968,77.0162187 L59.9820968,40.0066484 C59.9822581,36.7072363 57.3114516,34.0228672 54.0287097,34.0228672 Z M56.0132258,77.0163809 C56.0132258,78.1161309 55.1230645,79.0109746 54.0287097,79.0109746 L5.97129032,79.0109746 C4.87709677,79.0109746 3.98677419,78.116293 3.98677419,77.0163809 L3.98677419,40.0066484 C3.98677419,38.9068984 4.87709677,38.0120547 5.97129032,38.0120547 L54.028871,38.0120547 C55.1230645,38.0120547 56.0133871,38.9067363 56.0133871,40.0066484 L56.0133871,77.0163809 L56.0132258,77.0163809 Z" id="Shape"></path>
                    </g>
                </g>
            </g>
        </g>
    </g>
</svg>