<svg xmlns="http://www.w3.org/2000/svg" width="20" height="20" viewBox="0 0 20 20">
    <g fill="none" fill-rule="evenodd">
        <path stroke="#D3D3D3" stroke-width="1.5" d="M9.978 19c4.959 0 8.979-4.03 8.979-9s-4.02-9-8.979-9C5.02 1 1 5.03 1 10c0 1.263.26 2.466.729 3.557C3.104 16.76 6.28 19 9.979 19z"/>
        <path fill="#D3D3D3" d="M10.78 15.294H9.141V7.587h1.637v7.707zM9.043 5.545c0-.292.08-.518.24-.676.161-.158.39-.237.687-.237.288 0 .512.08.673.237.16.158.24.384.24.676 0 .28-.08.499-.24.659-.16.16-.385.24-.673.24-.297 0-.526-.08-.686-.24-.16-.16-.24-.38-.24-.659z"/>
    </g>
</svg>
