<?xml version="1.0" encoding="UTF-8"?>
<svg width="79px" height="60px" viewBox="0 0 79 60" version="1.1" xmlns="http://www.w3.org/2000/svg" xmlns:xlink="http://www.w3.org/1999/xlink">
    <!-- Generator: Sketch 46.2 (44496) - http://www.bohemiancoding.com/sketch -->
    <title>Shape</title>
    <desc>Created with Sketch.</desc>
    <defs></defs>
    <g id="Home-Pages" stroke="none" stroke-width="1" fill="none" fill-rule="evenodd">
        <g id="2.0-APS-Work-v14.0" transform="translate(-261.000000, -3504.000000)" stroke="#3A98CA" fill-rule="nonzero" fill="#3A98CA">
            <g id="New-public-service" transform="translate(0.000000, 2160.000000)">
                <g id="suitcase" transform="translate(223.000000, 1302.000000)">
                    <path d="M110.630152,52.5343886 L91.4582051,52.5343886 L91.4582051,49.1909741 C91.4582051,45.796772 88.6943262,43.0353109 85.2971523,43.0353109 L69.7028477,43.0353109 C66.3056738,43.0353109 63.5417949,45.796772 63.5417949,49.1909741 L63.5417949,52.5343886 L44.3698477,52.5343886 C41.408957,52.5343886 39,54.9412383 39,57.8993886 L39,95.5993886 C39,98.5578394 41.408957,100.964539 44.3698477,100.964539 L110.630002,100.964539 C113.591043,100.964539 115.99985,98.5576891 115.99985,95.5993886 L115.99985,57.8993886 C116,54.9412383 113.591043,52.5343886 110.630152,52.5343886 Z M66.6096133,49.1909741 C66.6096133,47.4867358 67.9972676,46.1002953 69.702998,46.1002953 L85.2971523,46.1002953 C87.0027324,46.1002953 88.3905371,47.4867358 88.3905371,49.1909741 L88.3905371,52.5343886 L66.6096133,52.5343886 L66.6096133,49.1909741 Z M112.932332,95.5995389 C112.932332,96.8678756 111.8996,97.8997047 110.630152,97.8997047 L44.3698477,97.8997047 C43.1004004,97.8997047 42.067668,96.8680259 42.067668,95.5995389 L42.067668,66.0269016 L65.6179375,77.4393782 C66.0952773,80.3477927 68.6275547,82.5743316 71.6713105,82.5743316 L83.3286895,82.5743316 C86.3724453,82.5743316 88.9047227,80.3477927 89.3820625,77.4393782 L104.091619,70.3107876 C104.853799,69.9414508 105.171875,69.0247202 104.802215,68.2632073 C104.432705,67.501544 103.515172,67.1835959 102.752842,67.5532332 L89.0364648,74.2003938 C88.1380313,71.9272746 85.9190176,70.3142435 83.3286895,70.3142435 L71.6713105,70.3142435 C69.0809824,70.3142435 66.8618184,71.9274249 65.9635352,74.2003938 L42.067668,62.6203782 L42.067668,57.8993886 C42.067668,56.6312021 43.1004004,55.5993731 44.3698477,55.5993731 L110.630002,55.5993731 C111.899299,55.5993731 112.932182,56.6310518 112.932182,57.8993886 L112.932182,95.5995389 L112.932332,95.5995389 Z M68.6036426,76.4443627 C68.6036426,74.7542487 69.9798672,73.3793782 71.6713105,73.3793782 L83.3286895,73.3793782 C85.0202832,73.3793782 86.3963574,74.754399 86.3963574,76.4443627 C86.3963574,78.1343264 85.0201328,79.5093472 83.3286895,79.5093472 L71.6713105,79.5093472 C69.9797168,79.5093472 68.6036426,78.1343264 68.6036426,76.4443627 Z" id="Shape"></path>
                </g>
            </g>
        </g>
    </g>
</svg>