<svg xmlns="http://www.w3.org/2000/svg" width="81" height="103" viewBox="0 0 81 103"><path fill="#3a98ca" d="M39.88 19.02C26.75 19.54 16.04 30.61 16 43.73a24.72 24.72 0 0 0 5.76 15.92 35.83 35.83 0 0 1 8.35 22.94s-.56 3.83 2.17 3.83h17.21c2.79 0 2.17-3.83 2.17-3.83 0-8.16 3-16.24 8.7-23.36a24.51 24.51 0 0 0 5.41-15.42 24.5 24.5 0 0 0-7.64-17.88 24.78 24.78 0 0 0-18.25-6.91zm7.43 63.07H34.45a40.21 40.21 0 0 0-9.35-25.21 20.4 20.4 0 0 1-4.74-13.13 20.71 20.71 0 0 1 19.71-20.4c5.66-.21 11 1.81 15.05 5.7a20.25 20.25 0 0 1 6.31 14.76 20.25 20.25 0 0 1-4.47 12.72c-6.2 7.74-9.52 16.57-9.65 25.56zM69.01 11.64a2.17 2.17 0 0 0-3.07 0l-5.3 5.29a2.15 2.15 0 0 0 0 3.06c.86.83 2.24.85 3.07 0l5.3-5.29c.86-.83.86-2.21 0-3.06zM49.54 89H32.17a2.17 2.17 0 1 0 0 4.33h17.37a2.17 2.17 0 1 0 0-4.33zM45.96 98H35.17a2.17 2.17 0 1 0 0 4.33h10.79c1.22 0 2.18-.98 2.18-2.17 0-1.18-.99-2.16-2.18-2.16zM40.17 11.8c1.21 0 2.17-.98 2.17-2.16V2.16a2.17 2.17 0 0 0-4.34 0v7.48c0 1.21.96 2.16 2.17 2.16zM20.01 19.99c.85-.86.85-2.23 0-3.06l-5.31-5.29a2.17 2.17 0 1 0-3.07 3.06l5.31 5.29a2.2 2.2 0 0 0 3.07 0zM78.67 38h-7.5a2.17 2.17 0 1 0 0 4.33h7.5a2.17 2.17 0 1 0 0-4.33zM9.67 38h-7.5a2.17 2.17 0 1 0 0 4.33h7.5a2.17 2.17 0 1 0 0-4.33z"/></svg>