<svg xmlns="http://www.w3.org/2000/svg" width="131" height="131" viewBox="0 0 131 131">
    <path fill="#FFF" fill-rule="nonzero" d="M129.853 124.32L98.018 92.483c8.54-9.817 13.71-22.627 13.71-36.627C111.728 25.038 86.66 0 55.87 0 25.053 0 .015 25.067.015 55.857c0 30.789 25.067 55.856 55.856 55.856 14 0 26.81-5.17 36.628-13.71l31.835 31.835a3.947 3.947 0 0 0 2.76 1.162c.987 0 2.003-.378 2.759-1.162 1.51-1.51 1.51-4.008 0-5.519zM7.828 55.856c0-26.49 21.553-48.014 48.014-48.014 26.49 0 48.014 21.552 48.014 48.014 0 26.461-21.524 48.043-48.014 48.043-26.461 0-48.014-21.553-48.014-48.043z" opacity=".25"/>
</svg>
