<svg xmlns="http://www.w3.org/2000/svg" width="81" height="94" viewBox="0 0 81 94"><path fill="#3a98ca" d="M80.55 78.04L66.82 53.96a3.85 3.85 0 0 0 2.13-3.79l-1.02-8.52 5.85-6.12a3.8 3.8 0 0 0 .09-5.09l-5.84-6.3 1.2-8.61a3.84 3.84 0 0 0-2.97-4.08l-8.44-1.66-4.08-7.5C52.91.53 50.87-.21 49.01.53h-.09l-7.79 3.61L33.52.43a3.62 3.62 0 0 0-4.91 1.49l-4.18 7.5-8.44 1.48a3.8 3.8 0 0 0-3.06 4.17l1.02 8.52-5.84 6.11a3.8 3.8 0 0 0-.09 5.09l5.84 6.3-1.21 8.61a3.83 3.83 0 0 0 2.41 3.89L1.24 78.04c-.37.56-.27 1.3 0 1.85.38.56.93.93 1.58.93h14.84l6.77 11.76c.37.56.93.93 1.58.93s1.3-.37 1.58-.93l13.26-22.6 13.26 22.88c.38.56.93.93 1.58.93s1.3-.37 1.58-.93l6.77-12.04h14.84c.65 0 1.3-.37 1.58-.93.46-.55.46-1.29.09-1.85zM26.1 87.95l-5.75-9.91a1.92 1.92 0 0 0-1.57-.92H5.98l12.8-22.6 5.28.92 4.08 7.51c.84 1.76 2.88 2.5 4.73 1.76h.1l3.8-1.76 1.85 3.24zm5.38-26.58h-.09l-4.08-7.68a3.46 3.46 0 0 0-2.6-1.76l-8.53-1.58 1.2-8.52a3.58 3.58 0 0 0-.92-3.05l-5.75-6.3 5.84-6.11a3.52 3.52 0 0 0 1.02-3.06l-1.02-8.43s0-.09.09-.18l8.44-1.49a3.74 3.74 0 0 0 2.6-1.85l4.17-7.5 7.61 3.71c1.02.55 2.32.55 3.34 0l7.7-3.52h.09l4.08 7.68c.56.93 1.48 1.67 2.51 1.76l8.44 1.67-1.21 8.52a3.61 3.61 0 0 0 .93 3.06l5.84 6.29-5.94 6.12a3.49 3.49 0 0 0-1.02 3.05l1.02 8.52-8.34 1.39a3.77 3.77 0 0 0-2.6 1.85l-4.17 7.5-7.61-3.7a3.53 3.53 0 0 0-3.34 0zm29.96 16.67l-5.75 10.19-13.08-22.6a1.44 1.44 0 0 0-.37-.65l-2.04-3.61.65-.28 7.61 3.71c.55.28 1.11.37 1.67.37 1.29 0 2.59-.65 3.24-1.85l4.18-7.5 5.56-1.02 12.71 22.32h-12.8c-.65 0-1.3.37-1.58.92z"/><path fill="#3a98ca" d="M59.1 32.52A18.59 18.59 0 0 0 40.55 14 18.59 18.59 0 0 0 22 32.52a18.59 18.59 0 0 0 18.55 18.52c10.2 0 18.55-8.33 18.55-18.52zM40.55 47.34a14.88 14.88 0 0 1-14.84-14.82c0-8.15 6.68-14.82 14.84-14.82s14.84 6.67 14.84 14.82-6.68 14.82-14.84 14.82z"/></svg>