<svg xmlns="http://www.w3.org/2000/svg" width="144" height="144" viewBox="0 0 144 144">
    <g fill="#FFF" fill-rule="nonzero" opacity=".241">
        <path d="M72 62.4c9.264 0 16.8-7.538 16.8-16.8S81.264 28.8 72 28.8c-9.264 0-16.8 7.538-16.8 16.8S62.736 62.4 72 62.4zm0-28.8c6.617 0 12 5.383 12 12s-5.383 12-12 12-12-5.383-12-12 5.383-12 12-12z"/>
        <path d="M71.575 131.417l36.819-53.177c13.81-18.41 11.812-48.672-4.275-64.757C95.426 4.788 83.868 0 71.575 0 59.282 0 47.724 4.788 39.031 13.48c-16.087 16.086-18.084 46.347-4.33 64.686l36.874 53.25zM42.425 16.874C50.213 9.09 60.564 4.8 71.575 4.8s21.363 4.289 29.15 12.074c14.52 14.518 16.309 41.85 3.776 58.558l-32.926 47.551L38.597 75.36c-12.48-16.637-10.69-43.968 3.828-58.486z"/>
        <path d="M101.08 103.217a2.392 2.392 0 0 0-2.663 2.102 2.4 2.4 0 0 0 2.102 2.664c25.239 2.971 38.681 10.978 38.681 15.617 0 6.514-25.565 15.6-67.2 15.6-41.635 0-67.2-9.086-67.2-15.6 0-4.64 13.442-12.646 38.68-15.617a2.401 2.401 0 0 0 2.103-2.664 2.391 2.391 0 0 0-2.664-2.102C17.65 106.193 0 114.574 0 123.6 0 133.738 24.732 144 72 144s72-10.262 72-20.4c0-9.026-17.65-17.407-42.92-20.383z"/>
    </g>
</svg>
