<?xml version="1.0" encoding="UTF-8"?>
<svg width="85px" height="85px" viewBox="0 0 85 85" version="1.1" xmlns="http://www.w3.org/2000/svg" xmlns:xlink="http://www.w3.org/1999/xlink">
    <!-- Generator: Sketch 46.2 (44496) - http://www.bohemiancoding.com/sketch -->
    <title>Group 2</title>
    <desc>Created with Sketch.</desc>
    <defs></defs>
    <g id="Home-Pages" stroke="none" stroke-width="1" fill="none" fill-rule="evenodd">
        <g id="2.0-APS-Work-v14.0" transform="translate(-263.000000, -2363.000000)" stroke="#3A98CA" fill-rule="nonzero" fill="#3A98CA">
            <g id="New-public-service" transform="translate(0.000000, 2160.000000)">
                <g id="open-book" transform="translate(223.000000, 172.000000)">
                    <g id="Group-2" transform="translate(41.000000, 32.000000)">
                        <path d="M47.0910936,39.2852105 C47.3354016,39.7629864 47.8214288,40.0390058 48.3239591,40.0390058 C48.5338051,40.0390058 48.749152,39.9906296 48.9494522,39.888538 C49.0308343,39.8471189 57.1573918,35.718961 61.1653372,34.4529279 C61.8916277,34.2223723 62.294655,33.4464113 62.0640994,32.7202827 C61.8348382,31.9939922 61.06454,31.5895088 60.3314542,31.81877 C56.1094561,33.1538889 48.038232,37.2543801 47.6958772,37.428308 C47.0165068,37.7734133 46.7459883,38.6047076 47.0910936,39.2852105 Z" id="Shape"></path>
                        <path d="M48.3239591,23.4715263 C48.5338051,23.4715263 48.749152,23.4231501 48.9494522,23.3210585 C49.0308343,23.2796394 57.1573918,19.1514815 61.1653372,17.8854483 C61.8916277,17.6548928 62.294655,16.8789318 62.0640994,16.1528031 C61.8348382,15.4265127 61.06454,15.0220292 60.3314542,15.2512904 C56.1094561,16.5864094 48.038232,20.6869006 47.6958772,20.8608285 C47.0166686,21.2059337 46.7459883,22.0370663 47.0910936,22.717731 C47.3354016,23.195345 47.8214288,23.4715263 48.3239591,23.4715263 Z" id="Shape"></path>
                        <path d="M81.4579474,20.7101988 C80.6944444,20.7101988 80.0773645,21.3287349 80.0773645,22.0907817 L80.0773645,75.935616 C80.0773645,78.2191676 78.2190058,80.0775263 75.9354542,80.0775263 L42.8001715,80.0775263 L42.8001715,76.9007135 C44.8132047,76.1965887 50.0567661,74.5550331 55.2259025,74.5550331 C67.2526511,74.5550331 75.4191715,77.2183138 75.5005536,77.2458187 C75.916039,77.3838285 76.3800624,77.3149045 76.7431267,77.0552261 C77.1034405,76.7957096 77.316037,76.378768 77.316037,75.9354542 L77.316037,15.1877057 C77.316037,14.5402086 76.867384,13.9795945 76.2349337,13.8401287 C76.2349337,13.8401287 75.1525361,13.5985712 73.3024288,13.2588051 C72.5554288,13.1207953 71.8335068,13.6178246 71.6953353,14.3661189 C71.5573255,15.1171637 72.0528986,15.8364971 72.8026491,15.9745068 C73.50823,16.1042651 74.0990994,16.2188148 74.5547096,16.3100663 L74.5547096,74.1007173 C71.4261111,73.2805867 64.4788655,71.7937057 55.2257407,71.7937057 C49.2102632,71.7937057 43.3012456,73.7693645 41.4731423,74.4390273 C39.8480897,73.7211501 34.9358811,71.7937057 28.9935341,71.7937057 C19.4836433,71.7937057 11.6499318,73.3621306 8.28398246,74.1588012 L8.28398246,16.2561891 C11.0411033,15.5782749 19.1841637,13.806961 28.9935341,13.806961 C34.0274113,13.806961 38.3445439,15.3739298 40.0386823,16.0822612 L40.0386823,70.4131228 C40.0386823,70.910152 40.3064503,71.3699688 40.7386004,71.6142768 C41.1707505,71.8600409 41.7036979,71.8530838 42.130347,71.5963177 C42.2670624,71.5149357 55.9463684,63.3442086 68.0876667,59.2975945 C68.6523255,59.1084581 69.0320546,58.5824678 69.0320546,57.9873918 L69.0320546,1.38123002 C69.0320546,0.92837037 68.8097505,0.504471735 68.4369786,0.246411306 C68.0669571,-0.0118109162 67.5920936,-0.0711890838 67.1654444,0.0876920078 C56.1190019,4.23089669 44.9415068,11.1865556 44.8295458,11.2556413 C44.1833431,11.6601248 43.9859552,12.5119669 44.3904386,13.1581696 C44.7936277,13.8043723 45.6454698,14.0017602 46.2929669,13.5972768 C46.3950585,13.5323977 56.1190019,7.48245809 66.2707271,3.39992593 L66.2707271,56.9989961 C56.846425,60.2738558 47.0066374,65.6211267 42.799848,68.0150214 L42.799848,15.1877057 C42.799848,14.6644659 42.5044133,14.1866901 42.036345,13.9520897 C41.7988324,13.8347895 36.1410799,11.0457953 28.9935341,11.0457953 C16.5181326,11.0457953 6.92685965,13.7449942 6.52367057,13.8608382 C5.93134503,14.0292651 5.52265497,14.5719201 5.52265497,15.1877057 L5.52265497,75.9357778 C5.52265497,76.3679279 5.727,76.7766179 6.07081092,77.0375906 C6.31382456,77.2212261 6.60650877,77.3165224 6.90339961,77.3165224 C7.03040741,77.3165224 7.1574152,77.2985634 7.28167251,77.2626452 C7.37696881,77.2364347 16.9240721,74.5551949 28.9935341,74.5551949 C34.0411637,74.5551949 38.3542515,76.1263704 40.0386823,76.8317895 L40.0386823,80.0776881 L6.90339961,80.0776881 C4.61984795,80.0776881 2.76148928,78.2193294 2.76148928,75.9357778 L2.76148928,22.0909435 C2.76148928,21.3288967 2.14295322,20.7103606 1.38090643,20.7103606 C0.618859649,20.7103606 0.000323586744,21.3288967 0.000323586744,22.0909435 L0.000323586744,75.9357778 C0.000323586744,79.7421287 3.09704873,82.8390156 6.9035614,82.8390156 L75.9354542,82.8390156 C79.7418051,82.8390156 82.838692,79.7422904 82.838692,75.9357778 L82.838692,22.0909435 C82.8385302,21.3287349 82.2214503,20.7101988 81.4579474,20.7101988 Z" id="Shape"></path>
                        <path d="M47.0910936,31.0013899 C47.3354016,31.4791657 47.8214288,31.7551852 48.3239591,31.7551852 C48.5338051,31.7551852 48.749152,31.706809 48.9494522,31.6047173 C49.0308343,31.5632982 57.1573918,27.4351404 61.1653372,26.1691072 C61.8916277,25.9385517 62.294655,25.1625906 62.0640994,24.436462 C61.8348382,23.7101715 61.06454,23.3056881 60.3314542,23.5349493 C56.1094561,24.8700682 48.038232,28.9705595 47.6958772,29.1444873 C47.0165068,29.4895926 46.7459883,30.3208869 47.0910936,31.0013899 Z" id="Shape"></path>
                        <path d="M47.0910936,47.5690312 C47.3354016,48.046807 47.8214288,48.3228265 48.3239591,48.3228265 C48.5338051,48.3228265 48.749152,48.2744503 48.9494522,48.1723587 C49.0308343,48.1309396 57.1573918,44.0027817 61.1653372,42.7367485 C61.8916277,42.506193 62.294655,41.730232 62.0640994,41.0041033 C61.8348382,40.2778129 61.06454,39.8733294 60.3314542,40.1025906 C56.1094561,41.4377096 48.038232,45.5382008 47.6958772,45.7121287 C47.0165068,46.0572339 46.7459883,46.8885283 47.0910936,47.5690312 Z" id="Shape"></path>
                        <path d="M33.4504561,25.6225692 C24.925078,23.6219942 15.2370526,26.1707251 14.8298187,26.2797739 C14.0939825,26.4771618 13.6563314,27.2337076 13.8537193,27.971 C14.0193957,28.5880799 14.5770975,28.9940195 15.1860877,28.9940195 C15.3048441,28.9940195 15.4248947,28.9788109 15.5451072,28.9470994 C15.637653,28.9208889 24.9652027,26.4674542 32.8210799,28.3106043 C33.5596667,28.4832378 34.3066667,28.0234211 34.4805945,27.2806277 C34.6543606,26.5392904 34.1932495,25.7964971 33.4504561,25.6225692 Z" id="Shape"></path>
                        <path d="M33.4504561,33.9063899 C24.925078,31.907271 15.2370526,34.4545458 14.8298187,34.5635945 C14.0939825,34.7609825 13.6563314,35.5176901 13.8537193,36.2548207 C14.0193957,36.8719006 14.5770975,37.2778402 15.1860877,37.2778402 C15.3048441,37.2778402 15.4248947,37.2626316 15.5451072,37.2309201 C15.637653,37.2047096 24.9652027,34.7512749 32.8210799,36.594425 C33.5596667,36.7670585 34.3066667,36.3072417 34.4805945,35.5644483 C34.6543606,34.8231111 34.1932495,34.0803177 33.4504561,33.9063899 Z" id="Shape"></path>
                        <path d="M47.0910936,55.8528519 C47.3354016,56.3306277 47.8214288,56.6066472 48.3239591,56.6066472 C48.5338051,56.6066472 48.749152,56.558271 48.9494522,56.4561793 C49.0308343,56.4147602 57.1573918,52.2866023 61.1653372,51.0205692 C61.8916277,50.7900136 62.294655,50.0140526 62.0640994,49.287924 C61.8348382,48.5617953 61.06454,48.1571501 60.3314542,48.3864113 C56.1094561,49.7215302 48.038232,53.8220214 47.6958772,53.9959493 C47.0165068,54.3410546 46.7459883,55.1723489 47.0910936,55.8528519 Z" id="Shape"></path>
                        <path d="M33.4504561,42.1902105 C24.925078,40.1910916 15.2370526,42.7369103 14.8298187,42.8474152 C14.0939825,43.0448031 13.6563314,43.8015107 13.8537193,44.5386413 C14.0193957,45.1557212 14.5770975,45.563117 15.1860877,45.563117 C15.3048441,45.563117 15.4248947,45.546614 15.5451072,45.5147407 C15.637653,45.4885302 24.9652027,43.0350955 32.8210799,44.8782456 C33.5596667,45.0508791 34.3066667,44.5910624 34.4805945,43.848269 C34.6543606,43.1069318 34.1932495,42.3641384 33.4504561,42.1902105 Z" id="Shape"></path>
                        <path d="M33.4504561,58.7578519 C24.925078,56.7572768 15.2370526,59.3060078 14.8298187,59.4150565 C14.0939825,59.6124444 13.6563314,60.369152 13.8537193,61.1062827 C14.0193957,61.7233626 14.5770975,62.1307583 15.1860877,62.1307583 C15.3048441,62.1307583 15.4248947,62.1142554 15.5451072,62.0823821 C15.637653,62.0561715 24.9652027,59.6027368 32.8210799,61.4458869 C33.5596667,61.6170643 34.3066667,61.1587037 34.4805945,60.4159103 C34.6543606,59.6745731 34.1932495,58.9317797 33.4504561,58.7578519 Z" id="Shape"></path>
                        <path d="M33.4504561,50.4740312 C24.925078,48.4734561 15.2370526,51.020731 14.8298187,51.1312359 C14.0939825,51.3286238 13.6563314,52.0853314 13.8537193,52.822462 C14.0193957,53.4395419 14.5770975,53.8469376 15.1860877,53.8469376 C15.3048441,53.8469376 15.4248947,53.8304347 15.5451072,53.7985614 C15.637653,53.7723509 24.9652027,51.3189162 32.8210799,53.1620663 C33.5596667,53.3346998 34.3066667,52.874883 34.4805945,52.1320897 C34.6543606,51.3907524 34.1932495,50.6479591 33.4504561,50.4740312 Z" id="Shape"></path>
                    </g>
                </g>
            </g>
        </g>
    </g>
</svg>