<svg xmlns="http://www.w3.org/2000/svg" width="95" height="96" viewBox="0 0 95 96"><path fill="#3a98ca" d="M69.16 41.4a2.24 2.24 0 1 0-4.17 1.65A24.64 24.64 0 0 1 42.1 76.71a24.64 24.64 0 0 1-24.62-24.62 24.64 24.64 0 0 1 33.68-22.88 2.25 2.25 0 0 0 1.66-4.17A29.13 29.13 0 0 0 13 52.09a29.13 29.13 0 0 0 29.1 29.1A29.13 29.13 0 0 0 69.16 41.4z"/><path fill="#3a98ca" d="M83.4 40.8a2.24 2.24 0 0 0-4.31 1.23 38.08 38.08 0 0 1-36.57 48.53A38.08 38.08 0 0 1 4.48 52.52a38.09 38.09 0 0 1 48.55-36.57 2.24 2.24 0 0 0 1.23-4.3A42.58 42.58 0 0 0 0 52.52a42.57 42.57 0 0 0 42.52 42.52A42.56 42.56 0 0 0 83.4 40.8z"/><path fill="#3a98ca" d="M58.27 51.3a2.24 2.24 0 1 0-4.46.4 11.19 11.19 0 1 1-10.14-10.17 2.24 2.24 0 0 0 .41-4.47A15.69 15.69 0 0 0 27 52.67c0 8.64 7.03 15.67 15.67 15.67a15.69 15.69 0 0 0 15.6-17.04z"/><path fill="#3a98ca" d="M94.51 15.07a4.47 4.47 0 0 0-4.14-2.77h-7.82V4.49a4.49 4.49 0 0 0-7.65-3.17L61.84 14.37a6.69 6.69 0 0 0-1.97 4.76v12.68L41.66 50.03a2.23 2.23 0 0 0 1.58 3.82c.57 0 1.15-.22 1.59-.65l18.21-18.22h12.68c1.8 0 3.49-.7 4.76-1.97l13.06-13.06a4.48 4.48 0 0 0 .97-4.88zm-29.5 2.47L78.07 4.49v9.12L64.35 27.33v-8.2c0-.6.24-1.16.66-1.59zm12.3 12.3c-.42.42-1 .66-1.59.66h-8.2l13.72-13.72h9.13z"/></svg>